<svg width="21" height="19" viewBox="0 0 21 19" fill="none" xmlns="http://www.w3.org/2000/svg">
<path d="M10.5011 18.229L1.59241 9.32032C0.881796 8.60971 0.408053 7.78354 0.171181 6.84183C-0.0599134 5.90013 -0.0570247 4.96419 0.179847 4.03404C0.416719 3.09811 0.887573 2.2835 1.59241 1.59022C2.31458 0.879602 3.13785 0.408748 4.06223 0.177654C4.99239 -0.059218 5.91965 -0.059218 6.84403 0.177654C7.77418 0.414525 8.60035 0.88538 9.32252 1.59022L10.5011 2.73413L11.6797 1.59022C12.4076 0.88538 13.2338 0.414525 14.1582 0.177654C15.0825 -0.059218 16.0069 -0.059218 16.9313 0.177654C17.8615 0.408748 18.6876 0.879602 19.4098 1.59022C20.1146 2.2835 20.5855 3.09811 20.8223 4.03404C21.0592 4.96419 21.0592 5.90013 20.8223 6.84183C20.5913 7.78354 20.1204 8.60971 19.4098 9.32032L10.5011 18.229Z" fill="#FF6B00"/>
</svg>
