<svg width="19" height="19" viewBox="0 0 19 19" fill="none" xmlns="http://www.w3.org/2000/svg">
<path d="M8.408 19V15.496C8.008 15.432 7.624 15.328 7.256 15.184C6.888 15.04 6.544 14.848 6.224 14.608L3.728 17.08L2.192 15.544L4.664 13.072C4.424 12.736 4.232 12.384 4.088 12.016C3.944 11.648 3.832 11.264 3.752 10.864H0.272V8.704H3.752C3.832 8.288 3.944 7.904 4.088 7.552C4.232 7.184 4.424 6.832 4.664 6.496L2.192 4.024L3.728 2.488L6.224 4.96C6.528 4.72 6.864 4.528 7.232 4.384C7.6 4.24 7.992 4.136 8.408 4.072V0.568H10.568V4.048C10.968 4.112 11.352 4.216 11.72 4.36C12.088 4.504 12.432 4.704 12.752 4.96L15.248 2.488L16.784 4.024L14.312 6.496C14.536 6.816 14.72 7.16 14.864 7.528C15.024 7.896 15.136 8.288 15.2 8.704H18.704V10.864H15.2C15.136 11.28 15.032 11.672 14.888 12.04C14.744 12.392 14.552 12.736 14.312 13.072L16.784 15.544L15.248 17.08L12.752 14.584C12.432 14.824 12.088 15.024 11.72 15.184C11.352 15.328 10.968 15.432 10.568 15.496V19H8.408ZM9.488 13.288C10.128 13.288 10.712 13.136 11.24 12.832C11.784 12.512 12.216 12.088 12.536 11.56C12.856 11.016 13.016 10.424 13.016 9.784C13.016 9.128 12.848 8.536 12.512 8.008C12.192 7.48 11.768 7.056 11.24 6.736C10.712 6.416 10.128 6.256 9.488 6.256C8.848 6.256 8.256 6.416 7.712 6.736C7.184 7.056 6.76 7.48 6.44 8.008C6.12 8.536 5.96 9.128 5.96 9.784C5.96 10.424 6.12 11.016 6.44 11.56C6.76 12.088 7.184 12.512 7.712 12.832C8.256 13.136 8.848 13.288 9.488 13.288Z" fill="#8A8A8A"/>
</svg>
