<svg width="64" height="72" viewBox="0 0 64 72" fill="none" xmlns="http://www.w3.org/2000/svg">
<g clip-path="url(#clip0_182_881)" filter="url(#filter0_d_182_881)">
<path d="M53.6287 11.3017V50.2889C53.6287 53.1533 51.3066 55.4754 48.4422 55.4754H15.5596C12.6952 55.4754 10.373 53.1533 10.373 50.2889V6.11519H48.4422C51.3066 6.11519 53.6287 8.43733 53.6287 11.3017Z" fill="#FF6B00"/>
<path d="M32.0114 22.4528C27.1419 22.4528 23.1943 26.4004 23.1943 31.2699H40.8285C40.8284 26.4004 36.8809 22.4528 32.0114 22.4528Z" fill="#FFD66B"/>
<path d="M22.5149 31.2647H41.5028C42.2876 31.2647 42.9239 31.9009 42.9239 32.6858V33.526C42.9239 34.3109 42.2876 34.9471 41.5028 34.9471H22.5149C21.73 34.9471 21.0938 34.3109 21.0938 33.526V32.6858C21.0938 31.9009 21.7299 31.2647 22.5149 31.2647Z" fill="#FFD66B"/>
<path d="M34.0655 22.4528H29.9577V20.9694C29.9435 20.1103 30.6284 19.402 31.4875 19.3878C31.4962 19.3877 31.5049 19.3875 31.5137 19.3875H32.4525C33.3261 19.3847 34.0367 20.0906 34.0395 20.9642V20.9694L34.0655 22.4528Z" fill="#FFD66B"/>
<path d="M44.0077 5.54467V5.48243C43.5982 2.64734 40.968 0.68113 38.133 1.09061C38.1238 1.0919 38.1146 1.09333 38.1054 1.09463L10.6478 4.87561C10.4701 4.88987 10.3379 5.04547 10.3521 5.22311C10.3664 5.40074 10.522 5.533 10.6996 5.51874" fill="#FF6B00"/>
<path d="M24.0138 62.8144L21.8873 60.8487C21.6877 60.6609 21.3765 60.6609 21.1768 60.8487L19.071 62.8144C18.861 63.0091 18.5328 62.9968 18.3381 62.7867C18.2495 62.6913 18.2001 62.5659 18.1997 62.4357V55.4754H24.8903V62.4357C24.8922 62.7222 24.6613 62.9558 24.3749 62.9576C24.2405 62.9584 24.1111 62.9071 24.0138 62.8144Z" fill="#FE9B55"/>
<path d="M10.373 6.11519V50.2889C10.373 53.1533 12.6952 55.4754 15.5596 55.4754H21.4359C21.1558 53.2711 19.1902 51.9953 18.547 47.6956C17.5097 40.756 17.8105 15.1398 18.3655 6.12556L10.373 6.11519Z" fill="#F06500"/>
<path d="M18.2202 62.4357C18.2211 62.7222 18.4541 62.9536 18.7406 62.9527C18.8707 62.9523 18.9961 62.9029 19.0916 62.8144L21.1973 60.8487C21.287 60.7668 21.4027 60.7191 21.524 60.7138C21.524 60.2574 21.524 59.7647 21.5552 59.2149C21.6081 57.9672 21.5681 56.7172 21.4359 55.4754H18.2202V62.4357Z" fill="#EA8947"/>
<path d="M48.4579 5.07788H44.9933C44.3771 1.79091 41.2738 -0.421534 37.9655 0.0676859L10.4769 3.85385C9.8527 3.94138 9.37243 4.44966 9.3203 5.07788C9.31771 5.11587 9.31771 5.15399 9.3203 5.19198V50.2889C9.3203 53.7263 12.1068 56.5127 15.5441 56.5127H17.1675V62.4357C17.1806 63.295 17.8878 63.9809 18.7471 63.9678C19.1217 63.9621 19.4816 63.8215 19.7608 63.5716L21.5138 61.9378L23.2669 63.5716C23.7127 64.0073 24.3811 64.1228 24.9473 63.862C25.5085 63.6067 25.8736 63.0522 25.8861 62.4357V56.5127H48.4579C51.8953 56.5127 54.6817 53.7263 54.6817 50.2889V11.3017C54.6817 7.86434 51.8951 5.07788 48.4579 5.07788ZM38.2612 2.12155C39.3494 1.95532 40.459 2.23177 41.342 2.88916C42.0759 3.42934 42.6072 4.19993 42.8512 5.07788H16.7889L38.2612 2.12155ZM23.853 61.248L22.6186 60.0966C22.3368 59.8327 21.9671 59.683 21.5813 59.6765C21.1954 59.683 20.8257 59.8327 20.544 60.0966L19.3096 61.248V56.5179H23.9048L23.853 61.248ZM52.607 50.2941C52.607 52.5856 50.7493 54.4433 48.4578 54.4433H15.5596C13.268 54.4433 11.4103 52.5856 11.4103 50.2941V7.15249H48.4578C50.7493 7.15249 52.607 9.01018 52.607 11.3017V50.2941Z" fill="black"/>
<path d="M41.8037 30.2429C41.3894 26.4026 38.7697 23.1583 35.1027 21.9445V20.9694C35.0999 19.522 33.9258 18.3502 32.4783 18.3502H31.5396C30.1043 18.3672 28.949 19.534 28.9463 20.9694V21.9186C25.2793 23.1323 22.6596 26.3766 22.2453 30.217C21.0131 30.3686 20.0863 31.4133 20.0825 32.6547V33.5519C20.0854 34.9077 21.1852 36.0052 22.5409 36.0052H41.5081C42.8629 36.0052 43.9613 34.9068 43.9613 33.5519V32.6806C43.9601 31.4401 43.0349 30.3948 41.8037 30.2429ZM30.995 20.9694C30.9807 20.6834 31.201 20.4397 31.4871 20.4255C31.4959 20.4251 31.5048 20.4248 31.5136 20.4248H32.4524C32.754 20.4248 32.9993 20.6678 33.0022 20.9694V21.4155H30.995V20.9694ZM32.0323 23.4901C35.9249 23.4942 39.2153 26.3747 39.7343 30.2326H24.3095C24.8286 26.3747 28.1189 23.4942 32.0115 23.4901H32.0323ZM41.8866 33.5519C41.8866 33.7611 41.7171 33.9306 41.508 33.9306H22.5149C22.3049 33.9306 22.1339 33.7619 22.1311 33.5519V32.6806C22.1339 32.4707 22.3049 32.302 22.5149 32.302H41.508C41.7171 32.302 41.8866 32.4715 41.8866 32.6806V33.5519Z" fill="black"/>
</g>
<defs>
<filter id="filter0_d_182_881" x="-4" y="0" width="72" height="72" filterUnits="userSpaceOnUse" color-interpolation-filters="sRGB">
<feFlood flood-opacity="0" result="BackgroundImageFix"/>
<feColorMatrix in="SourceAlpha" type="matrix" values="0 0 0 0 0 0 0 0 0 0 0 0 0 0 0 0 0 0 127 0" result="hardAlpha"/>
<feOffset dy="4"/>
<feGaussianBlur stdDeviation="2"/>
<feComposite in2="hardAlpha" operator="out"/>
<feColorMatrix type="matrix" values="0 0 0 0 0 0 0 0 0 0 0 0 0 0 0 0 0 0 0.25 0"/>
<feBlend mode="normal" in2="BackgroundImageFix" result="effect1_dropShadow_182_881"/>
<feBlend mode="normal" in="SourceGraphic" in2="effect1_dropShadow_182_881" result="shape"/>
</filter>
<clipPath id="clip0_182_881">
<rect width="64" height="64" fill="white"/>
</clipPath>
</defs>
</svg>
