<svg width="107" height="14" viewBox="0 0 107 14" fill="none" xmlns="http://www.w3.org/2000/svg">
<mask id="path-1-outside-1_182_919" maskUnits="userSpaceOnUse" x="-0.273438" y="-0.367188" width="107" height="15" fill="black">
<rect fill="white" x="-0.273438" y="-0.367188" width="107" height="15"/>
<path d="M0.726562 0.789062H3.20312V3.97656H10.7969V0.789062H13.2812V13H10.7969V6.09375H3.20312V13H0.726562V0.789062Z"/>
<path d="M20.7381 0.789062H23.3631L29.2693 13H26.6677L25.6912 10.9453H18.5584L17.6131 13H15.0037L20.7381 0.789062ZM24.7146 8.90625L22.074 3.35938L19.5037 8.90625H24.7146Z"/>
<path d="M30.9761 0.789062H33.4527L41.0621 4.77344V0.789062H43.5386V13H41.0621V7.39844L33.4527 3.4375V13H30.9761V0.789062Z"/>
<path d="M47.3861 9.36719C47.8288 9.61719 48.2767 9.84375 48.7298 10.0469C49.1881 10.2448 49.6621 10.4141 50.1517 10.5547C50.6413 10.6901 51.1543 10.7943 51.6907 10.8672C52.2324 10.9401 52.8079 10.9766 53.4173 10.9766C54.1517 10.9766 54.7767 10.9297 55.2923 10.8359C55.8079 10.737 56.2272 10.6042 56.5501 10.4375C56.8782 10.2656 57.1152 10.0625 57.2611 9.82812C57.4121 9.59375 57.4876 9.33854 57.4876 9.0625C57.4876 8.61979 57.3027 8.27083 56.9329 8.01562C56.5631 7.75521 55.9928 7.625 55.222 7.625C54.8835 7.625 54.5267 7.64844 54.1517 7.69531C53.7767 7.73698 53.3965 7.78385 53.0111 7.83594C52.6309 7.88802 52.2532 7.9375 51.8782 7.98437C51.5085 8.02604 51.1595 8.04687 50.8314 8.04687C50.2845 8.04687 49.7585 7.97656 49.2532 7.83594C48.7532 7.69531 48.3079 7.48437 47.9173 7.20312C47.5319 6.92187 47.2246 6.57031 46.9954 6.14844C46.7663 5.72656 46.6517 5.23437 46.6517 4.67188C46.6517 4.33854 46.696 4.00781 46.7845 3.67969C46.8782 3.35156 47.0241 3.03906 47.222 2.74219C47.4251 2.4401 47.6855 2.16146 48.0032 1.90625C48.321 1.64583 48.7038 1.42187 49.1517 1.23437C49.6048 1.04687 50.1256 0.901042 50.7142 0.796875C51.3079 0.6875 51.9824 0.632812 52.7376 0.632812C53.2845 0.632812 53.834 0.664063 54.3861 0.726562C54.9381 0.783854 55.4746 0.867188 55.9954 0.976562C56.5215 1.08594 57.0267 1.21875 57.5111 1.375C57.9954 1.52604 58.446 1.69531 58.8626 1.88281L57.7767 3.88281C57.4329 3.73177 57.0631 3.59375 56.6673 3.46875C56.2715 3.33854 55.8574 3.22656 55.4251 3.13281C54.9928 3.03906 54.5449 2.96615 54.0814 2.91406C53.623 2.85677 53.1543 2.82812 52.6751 2.82812C51.9928 2.82812 51.4303 2.8776 50.9876 2.97656C50.5501 3.07552 50.2012 3.20313 49.9407 3.35938C49.6803 3.51042 49.498 3.68229 49.3939 3.875C49.2949 4.0625 49.2454 4.25 49.2454 4.4375C49.2454 4.80208 49.4095 5.10156 49.7376 5.33594C50.0657 5.5651 50.5657 5.67969 51.2376 5.67969C51.5085 5.67969 51.8184 5.66146 52.1673 5.625C52.5215 5.58333 52.8913 5.53906 53.2767 5.49219C53.6673 5.44531 54.0631 5.40364 54.4642 5.36719C54.8704 5.32552 55.2637 5.30469 55.6439 5.30469C56.3626 5.30469 56.998 5.38542 57.5501 5.54687C58.1074 5.70833 58.5736 5.9401 58.9486 6.24219C59.3236 6.53906 59.6074 6.90104 59.8001 7.32812C59.9928 7.75 60.0892 8.22396 60.0892 8.75C60.0892 9.45312 59.9251 10.0807 59.597 10.6328C59.2741 11.1797 58.8105 11.6432 58.2064 12.0234C57.6074 12.3984 56.8835 12.6849 56.0345 12.8828C55.1855 13.0755 54.2402 13.1719 53.1986 13.1719C52.5111 13.1719 51.8392 13.1276 51.1829 13.0391C50.5267 12.9557 49.8965 12.8359 49.2923 12.6797C48.6934 12.5182 48.1204 12.3281 47.5736 12.1094C47.0319 11.8854 46.5293 11.6406 46.0657 11.375L47.3861 9.36719Z"/>
<path d="M66.8038 0.789062H69.4288L75.3351 13H72.7335L71.7569 10.9453H64.6241L63.6788 13H61.0694L66.8038 0.789062ZM70.7804 8.90625L68.1397 3.35938L65.5694 8.90625H70.7804Z"/>
<path d="M77.0419 0.789062H79.5184L87.1278 4.77344V0.789062H89.6044V13H87.1278V7.39844L79.5184 3.4375V13H77.0419V0.789062Z"/>
<path d="M92.0456 6.78125C92.0456 5.92187 92.207 5.11979 92.5299 4.375C92.8528 3.625 93.3242 2.97396 93.944 2.42187C94.5638 1.86979 95.3242 1.4349 96.2252 1.11719C97.1315 0.799479 98.168 0.640625 99.3346 0.640625C99.7565 0.640625 100.178 0.664063 100.6 0.710938C101.027 0.752604 101.447 0.820313 101.858 0.914062C102.275 1.00781 102.678 1.1276 103.069 1.27344C103.465 1.41406 103.84 1.58333 104.194 1.78125L103.053 3.65625C102.84 3.53125 102.598 3.41927 102.327 3.32031C102.056 3.21615 101.764 3.13021 101.452 3.0625C101.145 2.98958 100.824 2.9349 100.491 2.89844C100.163 2.86198 99.832 2.84375 99.4987 2.84375C98.7278 2.84375 98.0403 2.94271 97.4362 3.14062C96.832 3.33333 96.3216 3.60677 95.9049 3.96094C95.4883 4.3099 95.1706 4.72917 94.9518 5.21875C94.7331 5.70833 94.6237 6.24479 94.6237 6.82812C94.6237 7.43229 94.7383 7.98698 94.9674 8.49219C95.1966 8.99739 95.5221 9.43229 95.944 9.79687C96.3659 10.1615 96.8763 10.4479 97.4752 10.6562C98.0742 10.8594 98.7435 10.9609 99.4831 10.9609C100.072 10.9609 100.611 10.8958 101.1 10.7656C101.59 10.6302 102.017 10.4401 102.381 10.1953C102.746 9.95052 103.043 9.65625 103.272 9.3125C103.501 8.96354 103.652 8.57292 103.725 8.14062H99.4596V6.10156H105.952V6.10937L105.96 6.10156C106.09 6.72656 106.129 7.33594 106.077 7.92969C106.03 8.51823 105.895 9.07552 105.671 9.60156C105.452 10.1224 105.15 10.6016 104.764 11.0391C104.379 11.4766 103.918 11.8542 103.381 12.1719C102.845 12.4844 102.236 12.7292 101.553 12.9062C100.871 13.0781 100.124 13.1641 99.3112 13.1641C98.1758 13.1641 97.1575 12.9974 96.2565 12.6641C95.3607 12.3307 94.6002 11.875 93.9752 11.2969C93.3502 10.7187 92.8711 10.0417 92.5377 9.26562C92.2096 8.48958 92.0456 7.66146 92.0456 6.78125Z"/>
</mask>
<path d="M0.726562 0.789062H3.20312V3.97656H10.7969V0.789062H13.2812V13H10.7969V6.09375H3.20312V13H0.726562V0.789062Z" fill="#FF6B00"/>
<path d="M20.7381 0.789062H23.3631L29.2693 13H26.6677L25.6912 10.9453H18.5584L17.6131 13H15.0037L20.7381 0.789062ZM24.7146 8.90625L22.074 3.35938L19.5037 8.90625H24.7146Z" fill="#FF6B00"/>
<path d="M30.9761 0.789062H33.4527L41.0621 4.77344V0.789062H43.5386V13H41.0621V7.39844L33.4527 3.4375V13H30.9761V0.789062Z" fill="#FF6B00"/>
<path d="M47.3861 9.36719C47.8288 9.61719 48.2767 9.84375 48.7298 10.0469C49.1881 10.2448 49.6621 10.4141 50.1517 10.5547C50.6413 10.6901 51.1543 10.7943 51.6907 10.8672C52.2324 10.9401 52.8079 10.9766 53.4173 10.9766C54.1517 10.9766 54.7767 10.9297 55.2923 10.8359C55.8079 10.737 56.2272 10.6042 56.5501 10.4375C56.8782 10.2656 57.1152 10.0625 57.2611 9.82812C57.4121 9.59375 57.4876 9.33854 57.4876 9.0625C57.4876 8.61979 57.3027 8.27083 56.9329 8.01562C56.5631 7.75521 55.9928 7.625 55.222 7.625C54.8835 7.625 54.5267 7.64844 54.1517 7.69531C53.7767 7.73698 53.3965 7.78385 53.0111 7.83594C52.6309 7.88802 52.2532 7.9375 51.8782 7.98437C51.5085 8.02604 51.1595 8.04687 50.8314 8.04687C50.2845 8.04687 49.7585 7.97656 49.2532 7.83594C48.7532 7.69531 48.3079 7.48437 47.9173 7.20312C47.5319 6.92187 47.2246 6.57031 46.9954 6.14844C46.7663 5.72656 46.6517 5.23437 46.6517 4.67188C46.6517 4.33854 46.696 4.00781 46.7845 3.67969C46.8782 3.35156 47.0241 3.03906 47.222 2.74219C47.4251 2.4401 47.6855 2.16146 48.0032 1.90625C48.321 1.64583 48.7038 1.42187 49.1517 1.23437C49.6048 1.04687 50.1256 0.901042 50.7142 0.796875C51.3079 0.6875 51.9824 0.632812 52.7376 0.632812C53.2845 0.632812 53.834 0.664063 54.3861 0.726562C54.9381 0.783854 55.4746 0.867188 55.9954 0.976562C56.5215 1.08594 57.0267 1.21875 57.5111 1.375C57.9954 1.52604 58.446 1.69531 58.8626 1.88281L57.7767 3.88281C57.4329 3.73177 57.0631 3.59375 56.6673 3.46875C56.2715 3.33854 55.8574 3.22656 55.4251 3.13281C54.9928 3.03906 54.5449 2.96615 54.0814 2.91406C53.623 2.85677 53.1543 2.82812 52.6751 2.82812C51.9928 2.82812 51.4303 2.8776 50.9876 2.97656C50.5501 3.07552 50.2012 3.20313 49.9407 3.35938C49.6803 3.51042 49.498 3.68229 49.3939 3.875C49.2949 4.0625 49.2454 4.25 49.2454 4.4375C49.2454 4.80208 49.4095 5.10156 49.7376 5.33594C50.0657 5.5651 50.5657 5.67969 51.2376 5.67969C51.5085 5.67969 51.8184 5.66146 52.1673 5.625C52.5215 5.58333 52.8913 5.53906 53.2767 5.49219C53.6673 5.44531 54.0631 5.40364 54.4642 5.36719C54.8704 5.32552 55.2637 5.30469 55.6439 5.30469C56.3626 5.30469 56.998 5.38542 57.5501 5.54687C58.1074 5.70833 58.5736 5.9401 58.9486 6.24219C59.3236 6.53906 59.6074 6.90104 59.8001 7.32812C59.9928 7.75 60.0892 8.22396 60.0892 8.75C60.0892 9.45312 59.9251 10.0807 59.597 10.6328C59.2741 11.1797 58.8105 11.6432 58.2064 12.0234C57.6074 12.3984 56.8835 12.6849 56.0345 12.8828C55.1855 13.0755 54.2402 13.1719 53.1986 13.1719C52.5111 13.1719 51.8392 13.1276 51.1829 13.0391C50.5267 12.9557 49.8965 12.8359 49.2923 12.6797C48.6934 12.5182 48.1204 12.3281 47.5736 12.1094C47.0319 11.8854 46.5293 11.6406 46.0657 11.375L47.3861 9.36719Z" fill="#FF6B00"/>
<path d="M66.8038 0.789062H69.4288L75.3351 13H72.7335L71.7569 10.9453H64.6241L63.6788 13H61.0694L66.8038 0.789062ZM70.7804 8.90625L68.1397 3.35938L65.5694 8.90625H70.7804Z" fill="#FF6B00"/>
<path d="M77.0419 0.789062H79.5184L87.1278 4.77344V0.789062H89.6044V13H87.1278V7.39844L79.5184 3.4375V13H77.0419V0.789062Z" fill="#FF6B00"/>
<path d="M92.0456 6.78125C92.0456 5.92187 92.207 5.11979 92.5299 4.375C92.8528 3.625 93.3242 2.97396 93.944 2.42187C94.5638 1.86979 95.3242 1.4349 96.2252 1.11719C97.1315 0.799479 98.168 0.640625 99.3346 0.640625C99.7565 0.640625 100.178 0.664063 100.6 0.710938C101.027 0.752604 101.447 0.820313 101.858 0.914062C102.275 1.00781 102.678 1.1276 103.069 1.27344C103.465 1.41406 103.84 1.58333 104.194 1.78125L103.053 3.65625C102.84 3.53125 102.598 3.41927 102.327 3.32031C102.056 3.21615 101.764 3.13021 101.452 3.0625C101.145 2.98958 100.824 2.9349 100.491 2.89844C100.163 2.86198 99.832 2.84375 99.4987 2.84375C98.7278 2.84375 98.0403 2.94271 97.4362 3.14062C96.832 3.33333 96.3216 3.60677 95.9049 3.96094C95.4883 4.3099 95.1706 4.72917 94.9518 5.21875C94.7331 5.70833 94.6237 6.24479 94.6237 6.82812C94.6237 7.43229 94.7383 7.98698 94.9674 8.49219C95.1966 8.99739 95.5221 9.43229 95.944 9.79687C96.3659 10.1615 96.8763 10.4479 97.4752 10.6562C98.0742 10.8594 98.7435 10.9609 99.4831 10.9609C100.072 10.9609 100.611 10.8958 101.1 10.7656C101.59 10.6302 102.017 10.4401 102.381 10.1953C102.746 9.95052 103.043 9.65625 103.272 9.3125C103.501 8.96354 103.652 8.57292 103.725 8.14062H99.4596V6.10156H105.952V6.10937L105.96 6.10156C106.09 6.72656 106.129 7.33594 106.077 7.92969C106.03 8.51823 105.895 9.07552 105.671 9.60156C105.452 10.1224 105.15 10.6016 104.764 11.0391C104.379 11.4766 103.918 11.8542 103.381 12.1719C102.845 12.4844 102.236 12.7292 101.553 12.9062C100.871 13.0781 100.124 13.1641 99.3112 13.1641C98.1758 13.1641 97.1575 12.9974 96.2565 12.6641C95.3607 12.3307 94.6002 11.875 93.9752 11.2969C93.3502 10.7187 92.8711 10.0417 92.5377 9.26562C92.2096 8.48958 92.0456 7.66146 92.0456 6.78125Z" fill="#FF6B00"/>
<path d="M0.726562 0.789062H3.20312V3.97656H10.7969V0.789062H13.2812V13H10.7969V6.09375H3.20312V13H0.726562V0.789062Z" stroke="#FF6B00" mask="url(#path-1-outside-1_182_919)"/>
<path d="M20.7381 0.789062H23.3631L29.2693 13H26.6677L25.6912 10.9453H18.5584L17.6131 13H15.0037L20.7381 0.789062ZM24.7146 8.90625L22.074 3.35938L19.5037 8.90625H24.7146Z" stroke="#FF6B00" mask="url(#path-1-outside-1_182_919)"/>
<path d="M30.9761 0.789062H33.4527L41.0621 4.77344V0.789062H43.5386V13H41.0621V7.39844L33.4527 3.4375V13H30.9761V0.789062Z" stroke="#FF6B00" mask="url(#path-1-outside-1_182_919)"/>
<path d="M47.3861 9.36719C47.8288 9.61719 48.2767 9.84375 48.7298 10.0469C49.1881 10.2448 49.6621 10.4141 50.1517 10.5547C50.6413 10.6901 51.1543 10.7943 51.6907 10.8672C52.2324 10.9401 52.8079 10.9766 53.4173 10.9766C54.1517 10.9766 54.7767 10.9297 55.2923 10.8359C55.8079 10.737 56.2272 10.6042 56.5501 10.4375C56.8782 10.2656 57.1152 10.0625 57.2611 9.82812C57.4121 9.59375 57.4876 9.33854 57.4876 9.0625C57.4876 8.61979 57.3027 8.27083 56.9329 8.01562C56.5631 7.75521 55.9928 7.625 55.222 7.625C54.8835 7.625 54.5267 7.64844 54.1517 7.69531C53.7767 7.73698 53.3965 7.78385 53.0111 7.83594C52.6309 7.88802 52.2532 7.9375 51.8782 7.98437C51.5085 8.02604 51.1595 8.04687 50.8314 8.04687C50.2845 8.04687 49.7585 7.97656 49.2532 7.83594C48.7532 7.69531 48.3079 7.48437 47.9173 7.20312C47.5319 6.92187 47.2246 6.57031 46.9954 6.14844C46.7663 5.72656 46.6517 5.23437 46.6517 4.67188C46.6517 4.33854 46.696 4.00781 46.7845 3.67969C46.8782 3.35156 47.0241 3.03906 47.222 2.74219C47.4251 2.4401 47.6855 2.16146 48.0032 1.90625C48.321 1.64583 48.7038 1.42187 49.1517 1.23437C49.6048 1.04687 50.1256 0.901042 50.7142 0.796875C51.3079 0.6875 51.9824 0.632812 52.7376 0.632812C53.2845 0.632812 53.834 0.664063 54.3861 0.726562C54.9381 0.783854 55.4746 0.867188 55.9954 0.976562C56.5215 1.08594 57.0267 1.21875 57.5111 1.375C57.9954 1.52604 58.446 1.69531 58.8626 1.88281L57.7767 3.88281C57.4329 3.73177 57.0631 3.59375 56.6673 3.46875C56.2715 3.33854 55.8574 3.22656 55.4251 3.13281C54.9928 3.03906 54.5449 2.96615 54.0814 2.91406C53.623 2.85677 53.1543 2.82812 52.6751 2.82812C51.9928 2.82812 51.4303 2.8776 50.9876 2.97656C50.5501 3.07552 50.2012 3.20313 49.9407 3.35938C49.6803 3.51042 49.498 3.68229 49.3939 3.875C49.2949 4.0625 49.2454 4.25 49.2454 4.4375C49.2454 4.80208 49.4095 5.10156 49.7376 5.33594C50.0657 5.5651 50.5657 5.67969 51.2376 5.67969C51.5085 5.67969 51.8184 5.66146 52.1673 5.625C52.5215 5.58333 52.8913 5.53906 53.2767 5.49219C53.6673 5.44531 54.0631 5.40364 54.4642 5.36719C54.8704 5.32552 55.2637 5.30469 55.6439 5.30469C56.3626 5.30469 56.998 5.38542 57.5501 5.54687C58.1074 5.70833 58.5736 5.9401 58.9486 6.24219C59.3236 6.53906 59.6074 6.90104 59.8001 7.32812C59.9928 7.75 60.0892 8.22396 60.0892 8.75C60.0892 9.45312 59.9251 10.0807 59.597 10.6328C59.2741 11.1797 58.8105 11.6432 58.2064 12.0234C57.6074 12.3984 56.8835 12.6849 56.0345 12.8828C55.1855 13.0755 54.2402 13.1719 53.1986 13.1719C52.5111 13.1719 51.8392 13.1276 51.1829 13.0391C50.5267 12.9557 49.8965 12.8359 49.2923 12.6797C48.6934 12.5182 48.1204 12.3281 47.5736 12.1094C47.0319 11.8854 46.5293 11.6406 46.0657 11.375L47.3861 9.36719Z" stroke="#FF6B00" mask="url(#path-1-outside-1_182_919)"/>
<path d="M66.8038 0.789062H69.4288L75.3351 13H72.7335L71.7569 10.9453H64.6241L63.6788 13H61.0694L66.8038 0.789062ZM70.7804 8.90625L68.1397 3.35938L65.5694 8.90625H70.7804Z" stroke="#FF6B00" mask="url(#path-1-outside-1_182_919)"/>
<path d="M77.0419 0.789062H79.5184L87.1278 4.77344V0.789062H89.6044V13H87.1278V7.39844L79.5184 3.4375V13H77.0419V0.789062Z" stroke="#FF6B00" mask="url(#path-1-outside-1_182_919)"/>
<path d="M92.0456 6.78125C92.0456 5.92187 92.207 5.11979 92.5299 4.375C92.8528 3.625 93.3242 2.97396 93.944 2.42187C94.5638 1.86979 95.3242 1.4349 96.2252 1.11719C97.1315 0.799479 98.168 0.640625 99.3346 0.640625C99.7565 0.640625 100.178 0.664063 100.6 0.710938C101.027 0.752604 101.447 0.820313 101.858 0.914062C102.275 1.00781 102.678 1.1276 103.069 1.27344C103.465 1.41406 103.84 1.58333 104.194 1.78125L103.053 3.65625C102.84 3.53125 102.598 3.41927 102.327 3.32031C102.056 3.21615 101.764 3.13021 101.452 3.0625C101.145 2.98958 100.824 2.9349 100.491 2.89844C100.163 2.86198 99.832 2.84375 99.4987 2.84375C98.7278 2.84375 98.0403 2.94271 97.4362 3.14062C96.832 3.33333 96.3216 3.60677 95.9049 3.96094C95.4883 4.3099 95.1706 4.72917 94.9518 5.21875C94.7331 5.70833 94.6237 6.24479 94.6237 6.82812C94.6237 7.43229 94.7383 7.98698 94.9674 8.49219C95.1966 8.99739 95.5221 9.43229 95.944 9.79687C96.3659 10.1615 96.8763 10.4479 97.4752 10.6562C98.0742 10.8594 98.7435 10.9609 99.4831 10.9609C100.072 10.9609 100.611 10.8958 101.1 10.7656C101.59 10.6302 102.017 10.4401 102.381 10.1953C102.746 9.95052 103.043 9.65625 103.272 9.3125C103.501 8.96354 103.652 8.57292 103.725 8.14062H99.4596V6.10156H105.952V6.10937L105.96 6.10156C106.09 6.72656 106.129 7.33594 106.077 7.92969C106.03 8.51823 105.895 9.07552 105.671 9.60156C105.452 10.1224 105.15 10.6016 104.764 11.0391C104.379 11.4766 103.918 11.8542 103.381 12.1719C102.845 12.4844 102.236 12.7292 101.553 12.9062C100.871 13.0781 100.124 13.1641 99.3112 13.1641C98.1758 13.1641 97.1575 12.9974 96.2565 12.6641C95.3607 12.3307 94.6002 11.875 93.9752 11.2969C93.3502 10.7187 92.8711 10.0417 92.5377 9.26562C92.2096 8.48958 92.0456 7.66146 92.0456 6.78125Z" stroke="#FF6B00" mask="url(#path-1-outside-1_182_919)"/>
</svg>
